<?xml version="1.0" encoding="utf-8"?>
<!-- Generator: Adobe Illustrator 16.0.0, SVG Export Plug-In . SVG Version: 6.00 Build 0)  -->
<!DOCTYPE svg PUBLIC "-//W3C//DTD SVG 1.1//EN" "http://www.w3.org/Graphics/SVG/1.1/DTD/svg11.dtd">
<svg version="1.1" id="Layer_1" xmlns="http://www.w3.org/2000/svg" xmlns:xlink="http://www.w3.org/1999/xlink" x="0px" y="0px"
	 width="498px" height="154px" viewBox="0 0 498 154" enable-background="new 0 0 498 154" xml:space="preserve">
<g>
	<path fill="#00425C" d="M262.905,39.229c-4.401-3.535-10.737-6.207-18.319-6.207c-10.949,0-20.576,4.62-25.768,11.012l-0.492,0.607
		V34.317h-22.673v63.367h22.673v-31.56c0-9.725,5.898-15.538,15.777-15.538c8.674,0,13.261,4.307,13.261,12.469v34.629h22.679
		V55.761C270.043,48.603,267.645,43.045,262.905,39.229"/>
	<path fill="#00425C" d="M350.125,43.926l-0.159,0.21l-0.332,0.404v-0.517v-0.555v-9.15h-22.663v63.367h22.678v-30.66
		c0-6.667,2.79-11.544,8.302-14.473c3.965-2.11,9.251-3.189,15.677-3.189c4.268,0,7.814,0.492,9.295,0.734V33.622
		c-2.192-0.397-4.552-0.599-7.022-0.599C364.782,33.023,355.39,37.443,350.125,43.926"/>
	<path fill="#00425C" d="M322.739,47.015V34.317H306.33V20.414h-22.683v13.904h-9.367v12.697h9.367v35.553
		c0,5.631,2.006,9.526,6.128,11.888c3.403,1.952,8.338,3.229,15.438,3.229h17.525V80.724h-0.327
		c-1.771,0.012-5.318,0.012-7.486,0.012c-6.748,0-8.596-1.651-8.596-7.693V47.015H322.739z"/>
	<path fill="#00425C" d="M466.756,81.539c1.855-4.001,2.9-8.613,3.102-13.711h-24.426c-0.383,6.107-2.666,10.795-6.642,13.711
		H466.756z"/>
	<path fill="#00425C" d="M426.85,84.979c-12.032-0.005-18.659-7.136-18.659-18.995c0-11.87,6.627-18.965,18.659-18.97h38.007
		c-1.656-2.534-3.703-4.748-6.159-6.579c-7.232-5.379-17.938-8.115-31.838-8.123h-0.01c-13.91,0.008-24.631,2.744-31.849,8.123
		c-7.435,5.532-11.205,14.503-11.205,25.549c0,11.044,3.771,20.04,11.205,25.582c7.218,5.384,17.934,8.115,31.833,8.115
		c13.914,0,24.631-2.731,31.863-8.115c2.451-1.834,4.499-4.048,6.154-6.587H426.85z"/>
	<path fill="#00425C" d="M438.801,50.454c3.99,2.928,6.27,7.645,6.631,13.787h24.431c-0.196-5.13-1.236-9.766-3.103-13.787H438.801z
		"/>
	<path fill="#00425C" d="M482.405,98.118c-1.034,1.041-2.287,1.554-3.753,1.554c-1.467,0-2.721-0.513-3.746-1.554
		c-1.029-1.034-1.541-2.287-1.541-3.752c0-1.464,0.512-2.706,1.557-3.747c1.023-1.035,2.273-1.543,3.73-1.543
		c1.466,0,2.719,0.508,3.753,1.543c1.04,1.041,1.557,2.278,1.557,3.747C483.962,95.826,483.445,97.084,482.405,98.118
		 M475.438,91.143c-0.889,0.887-1.329,1.957-1.329,3.224c0,1.268,0.44,2.352,1.313,3.244c0.894,0.897,1.957,1.342,3.229,1.342
		c1.264,0,2.343-0.444,3.227-1.342c0.894-0.893,1.335-1.977,1.335-3.244c0-1.267-0.441-2.337-1.335-3.224
		c-0.894-0.897-1.963-1.342-3.227-1.342C477.401,89.801,476.321,90.245,475.438,91.143 M478.551,91.442
		c0.719,0,1.261,0.064,1.586,0.203c0.604,0.246,0.909,0.739,0.909,1.474c0,0.522-0.196,0.902-0.567,1.144
		c-0.205,0.134-0.478,0.232-0.845,0.286c0.464,0.069,0.794,0.262,0.994,0.567c0.222,0.306,0.323,0.602,0.323,0.907v0.424
		c0,0.133,0,0.271,0.008,0.424c0.005,0.153,0.026,0.257,0.058,0.306l0.04,0.079h-0.959c-0.015-0.02-0.015-0.045-0.021-0.064
		c-0.004-0.015-0.009-0.044-0.009-0.063l-0.021-0.192v-0.454c0-0.67-0.19-1.114-0.554-1.331c-0.224-0.128-0.607-0.191-1.138-0.191
		h-0.819v2.297h-1.019v-5.813H478.551z M479.66,92.354c-0.26-0.147-0.672-0.222-1.245-0.222h-0.879v2.105h0.935
		c0.432,0,0.752-0.039,0.983-0.123c0.392-0.163,0.593-0.459,0.593-0.912C480.047,92.784,479.916,92.493,479.66,92.354"/>
	<path fill="#00425C" d="M76.435,74.082c-2.451,6.927-8.409,10.893-17.378,10.896c-12.026-0.004-18.649-7.135-18.649-18.995
		c0-11.87,6.623-18.965,18.649-18.969c9.005,0.004,14.979,3.988,17.406,10.967h24.909c-1.421-7.376-4.924-13.418-10.465-17.546
		c-7.23-5.379-17.937-8.116-31.84-8.124h-0.01c-13.905,0.008-24.626,2.745-31.845,8.124c-7.439,5.532-11.203,14.502-11.203,25.548
		c0,11.044,3.764,20.041,11.203,25.583c7.219,5.384,17.93,8.115,31.828,8.115c13.92,0,24.637-2.731,31.867-8.115
		c5.52-4.117,9.013-10.144,10.449-17.484H76.435z"/>
	<path fill="#00425C" d="M163.393,78.712c-3.136,4.032-8.166,6.263-14.892,6.268c-10.02-0.005-16.284-4.946-18.096-13.456h32.832
		h27.975c0.224-1.782,0.341-3.632,0.341-5.539c-0.005-11.046-3.775-20.017-11.204-25.549c-7.227-5.379-17.938-8.115-31.835-8.123
		H148.5c-13.906,0.008-24.622,2.744-31.85,8.123c-7.43,5.532-11.199,14.503-11.199,25.549c0,11.044,3.769,20.04,11.199,25.582
		c7.228,5.384,17.935,8.115,31.84,8.115c13.913,0,24.631-2.731,31.858-8.115c4.312-3.21,7.388-7.589,9.216-12.854H163.393z
		 M148.5,47.015c10.054,0.005,16.328,4.97,18.115,13.52h-36.232C132.172,51.984,138.444,47.02,148.5,47.015"/>
</g>
<path fill="#026993" d="M203.292,116.239h5.623c0.838,0,1.541,0.094,2.107,0.267c0.562,0.188,1.029,0.434,1.391,0.76
	c0.346,0.33,0.608,0.729,0.768,1.197c0.151,0.479,0.227,1.011,0.227,1.603v2.303c0,0.616-0.075,1.148-0.227,1.622
	c-0.159,0.479-0.422,0.883-0.768,1.208c-0.361,0.325-0.828,0.576-1.391,0.759c-0.566,0.178-1.27,0.267-2.107,0.267h-3.619v5.552
	h-2.004V116.239z M211.405,120.085c0-0.783-0.188-1.326-0.559-1.627c-0.377-0.291-1.039-0.448-2.006-0.448h-3.545v6.438h3.545
	c0.967,0,1.629-0.152,2.006-0.458c0.371-0.306,0.559-0.843,0.559-1.607V120.085z"/>
<path fill="#026993" d="M227.165,127.293c0,0.651-0.104,1.269-0.315,1.829c-0.206,0.572-0.536,1.07-0.99,1.489
	c-0.45,0.429-1.032,0.77-1.746,1.016c-0.718,0.252-1.571,0.38-2.565,0.38c-1.012,0-1.871-0.128-2.573-0.38
	c-0.709-0.246-1.29-0.587-1.738-1.016c-0.45-0.419-0.782-0.917-0.993-1.489c-0.211-0.561-0.311-1.178-0.311-1.829v-6.571
	c0-0.656,0.1-1.268,0.311-1.828c0.211-0.573,0.543-1.066,0.993-1.495c0.448-0.424,1.029-0.77,1.738-1.016
	c0.702-0.252,1.562-0.375,2.573-0.375c0.994,0,1.848,0.123,2.565,0.375c0.714,0.246,1.296,0.592,1.746,1.016
	c0.454,0.429,0.784,0.922,0.99,1.495c0.211,0.561,0.315,1.172,0.315,1.828V127.293z M217.936,127.249
	c0,0.966,0.291,1.701,0.882,2.209c0.594,0.518,1.497,0.778,2.73,0.778c1.226,0,2.14-0.261,2.727-0.778
	c0.592-0.508,0.889-1.243,0.889-2.209v-6.488c0-0.956-0.297-1.696-0.889-2.214c-0.587-0.508-1.501-0.764-2.727-0.764
	c-1.233,0-2.137,0.256-2.73,0.764c-0.591,0.518-0.882,1.258-0.882,2.214V127.249z"/>
<polygon fill="#026993" points="243.861,129.862 247.403,116.239 249.363,116.239 245.281,131.775 242.462,131.775 239.243,117.896 
	236.03,131.775 233.21,131.775 229.124,116.239 231.081,116.239 234.632,129.862 237.843,116.239 240.645,116.239 "/>
<polygon fill="#026993" points="251.812,116.239 260.948,116.239 260.948,118.011 253.815,118.011 253.815,122.93 260.435,122.93 
	260.435,124.705 253.815,124.705 253.815,130 260.972,130 260.972,131.775 251.812,131.775 "/>
<path fill="#026993" d="M270.204,126.149h-3.801v5.626h-2.002v-15.536h5.922c0.84,0,1.541,0.094,2.109,0.267
	c0.571,0.188,1.027,0.434,1.386,0.76c0.36,0.33,0.617,0.729,0.772,1.197c0.151,0.479,0.23,1.011,0.23,1.603v2.238
	c0,0.932-0.185,1.705-0.556,2.312c-0.372,0.601-1.015,1.04-1.913,1.307l4.035,5.853h-2.31L270.204,126.149z M272.818,120.07
	c0-0.773-0.185-1.312-0.563-1.612c-0.369-0.291-1.037-0.449-2.002-0.449h-3.85v6.371h3.85c0.965,0,1.633-0.153,2.002-0.459
	c0.379-0.301,0.563-0.838,0.563-1.603V120.07z"/>
<rect x="279.259" y="116.239" fill="#026993" width="1.997" height="15.536"/>
<polygon fill="#026993" points="287.244,118.547 287.244,131.776 285.344,131.776 285.344,116.239 288.088,116.239 294.851,129.537 
	294.851,116.239 296.761,116.239 296.761,131.776 294.011,131.776 "/>
<path fill="#026993" d="M302.379,127.313c0,0.497,0.044,0.932,0.131,1.291c0.08,0.351,0.246,0.642,0.492,0.878
	c0.236,0.236,0.566,0.409,0.983,0.532c0.421,0.113,0.969,0.173,1.636,0.173c0.401,0,0.854-0.021,1.351-0.06
	c0.503-0.043,1.02-0.113,1.562-0.217v-5.271h1.957v6.686c-0.763,0.216-1.571,0.385-2.43,0.498c-0.853,0.123-1.691,0.183-2.499,0.183
	c-0.999,0-1.823-0.108-2.489-0.32c-0.657-0.207-1.187-0.503-1.587-0.893c-0.397-0.39-0.682-0.868-0.854-1.439
	c-0.17-0.558-0.256-1.203-0.256-1.918v-6.834c0-1.587,0.417-2.751,1.26-3.485c0.833-0.739,2.229-1.109,4.171-1.109
	c0.669,0,1.37,0.045,2.109,0.123c0.737,0.074,1.475,0.197,2.204,0.37l-0.232,1.721c-0.742-0.128-1.466-0.221-2.158-0.286
	c-0.688-0.069-1.36-0.108-2.013-0.108c-0.637,0-1.17,0.05-1.603,0.153c-0.426,0.104-0.767,0.261-1.021,0.482
	c-0.258,0.232-0.438,0.522-0.547,0.897c-0.113,0.36-0.167,0.809-0.167,1.336V127.313z"/>
<polygon fill="#026993" points="321.218,119.178 320.917,131.775 318.978,131.775 319.516,116.24 322.056,116.24 326.537,128.255 
	331.01,116.24 333.554,116.24 334.083,131.775 332.154,131.775 331.849,119.178 327.888,129.764 325.184,129.764 "/>
<path fill="#026993" d="M348.704,127.293c0,0.651-0.102,1.269-0.306,1.829c-0.221,0.572-0.547,1.07-1,1.489
	c-0.451,0.429-1.032,0.77-1.746,1.016c-0.708,0.252-1.571,0.38-2.565,0.38c-1.014,0-1.866-0.128-2.575-0.38
	c-0.712-0.246-1.285-0.587-1.741-1.016c-0.446-0.419-0.777-0.917-0.983-1.489c-0.216-0.561-0.317-1.178-0.317-1.829v-6.571
	c0-0.656,0.102-1.268,0.317-1.828c0.206-0.573,0.537-1.066,0.983-1.495c0.456-0.424,1.029-0.77,1.741-1.016
	c0.709-0.252,1.562-0.375,2.575-0.375c0.994,0,1.857,0.123,2.565,0.375c0.714,0.246,1.295,0.592,1.746,1.016
	c0.453,0.429,0.779,0.922,1,1.495c0.204,0.561,0.306,1.172,0.306,1.828V127.293z M339.474,127.249c0,0.966,0.296,1.701,0.884,2.209
	c0.593,0.518,1.505,0.778,2.729,0.778c1.23,0,2.14-0.261,2.731-0.778c0.587-0.508,0.889-1.243,0.889-2.209v-6.488
	c0-0.956-0.302-1.696-0.889-2.214c-0.592-0.508-1.501-0.764-2.731-0.764c-1.225,0-2.137,0.256-2.729,0.764
	c-0.588,0.518-0.884,1.258-0.884,2.214V127.249z"/>
<path fill="#026993" d="M357.75,116.239c0.946,0,1.736,0.114,2.379,0.351c0.637,0.236,1.154,0.552,1.541,0.961
	c0.386,0.404,0.668,0.878,0.829,1.41c0.159,0.532,0.245,1.109,0.245,1.735v6.616c0,0.627-0.086,1.208-0.245,1.746
	c-0.161,0.532-0.443,1.001-0.829,1.41c-0.387,0.399-0.904,0.719-1.541,0.946c-0.643,0.236-1.433,0.36-2.379,0.36h-5.432v-15.536
	H357.75z M354.32,130h3.364c0.586,0,1.079-0.064,1.465-0.192c0.388-0.118,0.703-0.306,0.938-0.532
	c0.227-0.236,0.397-0.522,0.493-0.883c0.105-0.35,0.16-0.754,0.16-1.198v-6.374c0-0.454-0.055-0.849-0.16-1.208
	c-0.096-0.351-0.267-0.637-0.493-0.868c-0.235-0.236-0.551-0.419-0.938-0.542c-0.386-0.118-0.879-0.192-1.465-0.192h-3.364V130z"/>
<polygon fill="#026993" points="366.237,116.239 375.373,116.239 375.373,118.011 368.246,118.011 368.246,122.93 374.866,122.93 
	374.866,124.705 368.246,124.705 368.246,130 375.404,130 375.404,131.775 366.237,131.775 "/>
<path fill="#026993" d="M384.635,126.149h-3.801v5.626h-2.002v-15.536h5.923c0.834,0,1.541,0.094,2.108,0.267
	c0.567,0.188,1.028,0.434,1.386,0.76c0.36,0.33,0.612,0.729,0.772,1.197c0.156,0.479,0.231,1.011,0.231,1.603v2.238
	c0,0.932-0.188,1.705-0.563,2.312c-0.37,0.601-1.008,1.04-1.906,1.307l4.03,5.853h-2.305L384.635,126.149z M387.249,120.07
	c0-0.773-0.19-1.312-0.562-1.612c-0.37-0.291-1.044-0.449-2.008-0.449h-3.845v6.371h3.845c0.964,0,1.638-0.153,2.008-0.459
	c0.372-0.301,0.562-0.838,0.562-1.603V120.07z"/>
<polygon fill="#026993" points="395.476,118.547 395.476,131.776 393.564,131.776 393.564,116.239 396.314,116.239 403.076,129.537 
	403.076,116.239 404.993,116.239 404.993,131.776 402.238,131.776 "/>
<polygon fill="#026993" points="415.972,119.178 415.67,131.775 413.728,131.775 414.27,116.24 416.81,116.24 421.288,128.255 
	425.766,116.24 428.305,116.24 428.836,131.775 426.904,131.775 426.603,119.178 422.638,129.764 419.937,129.764 "/>
<polygon fill="#026993" points="432.571,116.239 441.708,116.239 441.708,118.011 434.573,118.011 434.573,122.93 441.2,122.93 
	441.2,124.705 434.573,124.705 434.573,130 441.73,130 441.73,131.775 432.571,131.775 "/>
<path fill="#026993" d="M450.591,116.239c0.949,0,1.741,0.114,2.38,0.351c0.643,0.236,1.15,0.552,1.541,0.961
	c0.385,0.404,0.663,0.878,0.828,1.41c0.16,0.532,0.24,1.109,0.24,1.735v6.616c0,0.627-0.08,1.208-0.24,1.746
	c-0.165,0.532-0.443,1.001-0.828,1.41c-0.391,0.399-0.898,0.719-1.541,0.946c-0.639,0.236-1.431,0.36-2.38,0.36h-5.431v-15.536
	H450.591z M447.168,130h3.353c0.593,0,1.084-0.064,1.471-0.192c0.392-0.118,0.704-0.306,0.934-0.532
	c0.231-0.236,0.403-0.522,0.502-0.883c0.1-0.35,0.152-0.754,0.152-1.198v-6.374c0-0.454-0.053-0.849-0.152-1.208
	c-0.099-0.351-0.271-0.637-0.502-0.868c-0.229-0.236-0.542-0.419-0.934-0.542c-0.387-0.118-0.878-0.192-1.471-0.192h-3.353V130z"/>
<rect x="459.195" y="116.239" fill="#026993" width="2.008" height="15.536"/>
<path fill="#026993" d="M477.15,131.775h-2.028l-1.285-3.732h-6.597l-1.26,3.732h-2.027l5.239-15.536h2.707L477.15,131.775z
	 M470.548,117.659l-2.775,8.608h5.552L470.548,117.659z"/>
</svg>
